# xmcd CD database file
#
# Track frame offsets:
#	150
#	15273
#	25227
#	39477
#	57387
#	74325
#	83559
#	98673
#	108507
#	126981
#	144567
#	156105
#	178167
#	193155
#
# Disc length: 2707 seconds
#
# Revision: 0
# Processed by: cddbd v1.5.2PL0 Copyright (c) Steve Scherf et al.
# Submitted via: CDex 1.81
#
DISCID=ba0a910e
DTITLE=Bar D Wrangers w/ Matt Palmer - Fiddlin' Around
DYEAR=2012
DGENRE=Country
TTITLE0=Fiddlin' Around
TTITLE1=Billy In The Lowground
TTITLE2=Ashokan Farewell
TTITLE3=Black and White Rag
TTITLE4=Charmaine
TTITLE5=Fiddoodlin'
TTITLE6=The Arms Of My Love
TTITLE7=Uncle Pen
TTITLE8=Sweet Bunch of Daisies
TTITLE9=Faded Love/ Maidens Prayer
TTITLE10=Hey Good Looking
TTITLE11=Fiddle Medley
TTITLE12=Sweet Georgia Brown
TTITLE13=Power Of The Blood
EXTD=YEAR: 2012
EXTT0=
EXTT1=
EXTT2=
EXTT3=
EXTT4=
EXTT5=
EXTT6=
EXTT7=
EXTT8=
EXTT9=
EXTT10=
EXTT11=
EXTT12=
EXTT13=
PLAYORDER=
